<svg width="34" height="29" viewBox="0 0 34 29" fill="none" xmlns="http://www.w3.org/2000/svg">
<path d="M31.6861 24.3772C30.957 23.8466 30.6989 23.7161 30.5483 23.8135C30.51 23.6382 30.4073 23.4786 30.2559 23.3586C30.0321 23.1819 29.7273 23.1039 29.4089 23.1125C29.4061 22.9998 29.3771 22.8887 29.3235 22.786C29.2699 22.6833 29.193 22.5912 29.0973 22.5153C28.873 22.3382 28.5676 22.2602 28.2493 22.2688C28.2467 22.1561 28.2178 22.0449 28.1643 21.9422C28.1109 21.8396 28.0339 21.7475 27.9382 21.6716C27.7144 21.4944 27.4091 21.4165 27.0913 21.4247C27.0887 21.3118 27.0597 21.2007 27.0061 21.098C26.9526 20.9953 26.8755 20.9032 26.7797 20.8274C26.5195 20.6213 26.1503 20.5488 25.7764 20.5936C26.64 19.3711 25.5365 17.9872 24.6734 17.3579C24.1317 16.9636 24.3903 17.4861 23.4327 18.7639C22.1507 17.8268 20.8966 16.8609 19.6719 15.8671C21.8769 14.5367 24.3057 12.9698 26.748 11.1904C32.839 6.75292 32.1758 1.8125 32.1758 1.8125C32.1758 1.8125 31.4727 2.43962 30.2637 3.17278C28.5531 4.21044 25.8278 5.46559 22.6418 5.46559L22.5001 5.46469C22.5001 5.46469 22.3365 7.94419 16.6168 13.2263C10.8982 7.94373 10.7357 5.46469 10.7357 5.46469L10.5939 5.46559C7.40793 5.46559 4.6826 4.21044 2.972 3.17278C1.76305 2.43962 1.05991 1.8125 1.05991 1.8125C1.05991 1.8125 0.39675 6.75292 6.48668 11.1899C8.92431 12.9662 11.3557 14.5385 13.5576 15.8671C12.3346 16.8608 11.0821 17.8266 9.80142 18.7635C8.84433 17.4861 9.10295 16.9632 8.56131 17.3574C7.69822 17.9868 6.59469 19.3702 7.4583 20.5932C7.08492 20.5479 6.71517 20.6208 6.455 20.827C6.3593 20.9028 6.28232 20.9949 6.22875 21.0976C6.17518 21.2003 6.14614 21.3114 6.14341 21.4242C5.82508 21.4156 5.52024 21.494 5.29642 21.6712C5.09337 21.8316 4.99522 22.0436 4.98536 22.2684C4.66702 22.2593 4.36167 22.3377 4.13785 22.5149C3.9348 22.6753 3.83665 22.8873 3.82678 23.1121C3.50844 23.1035 3.20309 23.1814 2.97979 23.3581C2.82868 23.4783 2.72628 23.6379 2.68794 23.8131C2.53682 23.7157 2.27872 23.8462 1.54961 24.3768C0.283542 25.3002 1.67217 24.8988 2.4584 25.7121C3.61698 26.9111 6.64299 28.0534 9.12476 26.2445C11.1667 24.7578 12.0682 22.3581 11.1516 20.5044C11.8516 20.1718 13.8915 19.1762 16.6179 17.6474C19.3473 19.1785 21.3841 20.1709 22.0836 20.5048C21.167 22.3585 22.0685 24.7583 24.1104 26.245C26.5922 28.0539 29.6177 26.912 30.7768 25.7126C31.563 24.8992 32.9522 25.3007 31.6861 24.3772ZM3.725 25.1425C4.18718 25.2771 4.6852 25.2259 5.01288 24.9663C5.21489 24.8063 5.31304 24.5943 5.32291 24.3695C5.64124 24.3786 5.94608 24.3002 6.17042 24.1235C6.37295 23.9631 6.4711 23.751 6.48096 23.5258C6.7993 23.5349 7.10465 23.456 7.32951 23.2793C7.53152 23.1193 7.62967 22.9068 7.63954 22.6821C7.95788 22.6911 8.26323 22.6132 8.48757 22.436C8.68802 22.2765 8.78669 22.0663 8.79811 21.8429C10.6822 24.1371 6.4846 27.202 3.725 25.1425ZM23.1243 6.13622C25.4248 6.05103 27.4704 5.37452 29.0802 4.60964C28.4586 6.30523 27.1427 8.36831 24.4298 10.3435C22.2627 11.9226 20.106 13.3323 18.1098 14.5571C17.7869 14.2791 17.4673 13.9982 17.1512 13.7143C21.4713 9.71953 22.7524 7.22462 23.1243 6.13622ZM10.1114 6.13622C10.6053 7.58033 12.6789 11.4926 21.3669 18.1159C18.3835 16.5445 13.6022 13.8384 8.8059 10.3439C6.09356 8.36876 4.77763 6.30569 4.1555 4.61009C5.76536 5.37452 7.81143 6.05103 10.1114 6.13622ZM11.8688 18.1155C12.6638 17.5095 13.4464 16.8912 14.2161 16.2608C14.3848 16.3614 14.5515 16.4593 14.7177 16.5567C13.7776 17.0895 12.8278 17.6091 11.8688 18.1155ZM24.4376 21.8429C24.449 22.0658 24.5477 22.2765 24.7481 22.436C24.973 22.6132 25.2784 22.6911 25.5967 22.6821C25.6066 22.9068 25.7047 23.1198 25.9067 23.2793C26.1316 23.456 26.4369 23.5344 26.7553 23.5258C26.7657 23.751 26.8633 23.9635 27.0658 24.1235C27.2902 24.3002 27.5955 24.3786 27.9138 24.3695C27.9237 24.5943 28.0213 24.8068 28.2239 24.9663C28.5521 25.2255 29.0501 25.2771 29.5118 25.1425C26.7511 27.202 22.5535 24.1371 24.4376 21.8429Z" fill="#FF0000"/>
</svg>
